HIERARCHY
ROOT joint_Root
{
  OFFSET 0 0 0
  CHANNELS 6 Xposition Yposition Zposition Zrotation Xrotation Yrotation
  JOINT Hips
  {
    OFFSET 0.847027 93.984 -452.225
    CHANNELS 6 Xposition Yposition Zposition Zrotation Xrotation Yrotation
    JOINT Spine
    {
      OFFSET 15.7357 0 0
      CHANNELS 6 Xposition Yposition Zposition Zrotation Xrotation Yrotation
      JOINT Chest
      {
        OFFSET 8.98455 -0.406207 0
        CHANNELS 6 Xposition Yposition Zposition Zrotation Xrotation Yrotation
        JOINT Neck
        {
          OFFSET 16.3773 0 0
          CHANNELS 6 Xposition Yposition Zposition Zrotation Xrotation Yrotation
          JOINT Head
          {
            OFFSET 6.45672 0 0
            CHANNELS 6 Xposition Yposition Zposition Zrotation Xrotation Yrotation
            End Site
            {
              OFFSET 0 0 0
            }
          }
        }
        JOINT Shoulder_L
        {
          OFFSET 12.9942 -0.242716 4.98039
          CHANNELS 6 Xposition Yposition Zposition Zrotation Xrotation Yrotation
          JOINT UpperArm_L
          {
            OFFSET 5.34809 0 0
            CHANNELS 6 Xposition Yposition Zposition Zrotation Xrotation Yrotation
            JOINT LowerArm_L
            {
              OFFSET 24.3286 1.87007e-05 0
              CHANNELS 6 Xposition Yposition Zposition Zrotation Xrotation Yrotation
              JOINT Hand_L
              {
                OFFSET 22.2916 0 0
                CHANNELS 6 Xposition Yposition Zposition Zrotation Xrotation Yrotation
                End Site
                {
                  OFFSET 0 0 0
                }
              }
            }
          }
        }
        JOINT Shoulder_R
        {
          OFFSET 12.9945 -0.242716 -4.98039
          CHANNELS 6 Xposition Yposition Zposition Zrotation Xrotation Yrotation
          JOINT UpperArm_R
          {
            OFFSET -5.34813 0 0
            CHANNELS 6 Xposition Yposition Zposition Zrotation Xrotation Yrotation
            JOINT LowerArm_R
            {
              OFFSET -24.3289 0.000322201 0
              CHANNELS 6 Xposition Yposition Zposition Zrotation Xrotation Yrotation
              JOINT Hand_R
              {
                OFFSET -22.2915 -0.000108084 0
                CHANNELS 6 Xposition Yposition Zposition Zrotation Xrotation Yrotation
                End Site
                {
                  OFFSET 0 0 0
                }
              }
            }
          }
        }
      }
    }
    JOINT UpperLeg_L
    {
      OFFSET -2.19248 -6.46944 0
      CHANNELS 6 Xposition Yposition Zposition Zrotation Xrotation Yrotation
      JOINT LowerLeg_L
      {
        OFFSET 39.0811 0 -1.23785e-05
        CHANNELS 6 Xposition Yposition Zposition Zrotation Xrotation Yrotation
        JOINT Foot_L
        {
          OFFSET 40.9854 0 -1.26872e-05
          CHANNELS 6 Xposition Yposition Zposition Zrotation Xrotation Yrotation
          JOINT Toes_L
          {
            OFFSET 11.7543 0 0
            CHANNELS 6 Xposition Yposition Zposition Zrotation Xrotation Yrotation
            End Site
            {
              OFFSET 0 0 0
            }
          }
        }
      }
    }
    JOINT UpperLeg_R
    {
      OFFSET -2.19251 6.46944 0
      CHANNELS 6 Xposition Yposition Zposition Zrotation Xrotation Yrotation
      JOINT LowerLeg_R
      {
        OFFSET -39.0811 -0.00228153 -0.0401928
        CHANNELS 6 Xposition Yposition Zposition Zrotation Xrotation Yrotation
        JOINT Foot_R
        {
          OFFSET -40.9854 0 0
          CHANNELS 6 Xposition Yposition Zposition Zrotation Xrotation Yrotation
          JOINT Toes_R
          {
            OFFSET -11.7543 0 0
            CHANNELS 6 Xposition Yposition Zposition Zrotation Xrotation Yrotation
            End Site
            {
              OFFSET 0 0 0
            }
          }
        }
      }
    }
  }
}
MOTION
Frames:	7
Frame Time:	0.0333333
0 0 0 0 0 -0 -0.0939101 78.8699 -35.175 88.2774 -3.76238 -2.02108 15.7357 5.1072e-06 -5.51765e-07 91.8911 79.9064 -88.5166 8.98455 -0.406207 -4.3199e-07 12.3963 0.796325 6.66155 16.3773 -1.3905e-06 -6.99897e-07 -2.67119 -2.43909 2.83392 6.45672 -1.25837e-06 -1.02172e-07 -9.26435 -0.593497 -1.66297 12.9942 -0.242716 4.98039 -90.426 1.38739 -87.9131 5.34809 -7.22636e-06 -6.2814e-07 -69.9366 16.941 17.4179 24.3286 1.87007e-05 4.90208e-06 1.5691 1.8354 -40.5578 22.2916 -9.88446e-07 4.63217e-06 9.41253 5.66433 -16.5675 12.9945 -0.242716 -4.98039 88.241 10.5346 -95.4694 -5.34813 -1.25947e-06 -3.79883e-06 -46.5557 3.90777 -12.4123 -24.3289 0.000322201 -8.65921e-06 1.9899 0.787118 -68.4318 -22.2915 -0.000108084 -4.47941e-06 7.09001 5.61675 -12.3949 -2.19248 -6.46944 -1.22534e-07 -174.174 -17.8924 -37.5759 39.0811 -6.73843e-06 -1.23785e-05 0.59722 0.0488441 95.0648 40.9854 -6.48686e-06 -1.26872e-05 2.07619 5.29824 -54.4928 11.7543 -2.30145e-07 3.05095e-06 0.12927 -0.214221 -20.3375 -2.19251 6.46944 -1.45247e-06 -178.775 19.5276 148.342 -39.0811 -0.00228153 -0.0401928 0.152573 -0.0394178 70.6069 -40.9854 7.72618e-06 5.99936e-06 1.28576 -1.19735 -90.1674 -11.7543 -5.6619e-06 -5.58687e-06 -0.764243 -0.832498 -16.827 
0 0 0 0 0 -0 0.199783 80.2029 -28.4712 88.966 -5.41849 -2.68618 15.7357 5.1072e-06 -5.51765e-07 97.5419 80.2667 -95.3337 8.98455 -0.406207 -4.3199e-07 11.4939 2.60604 4.15289 16.3773 -1.3905e-06 -6.99897e-07 -2.49307 -2.66476 2.74101 6.45672 -1.25837e-06 -1.02172e-07 -9.05707 -2.89453 -1.04429 12.9942 -0.242716 4.98039 -89.9307 -0.202156 -86.1807 5.34809 -7.22636e-06 -6.2814e-07 -69.6474 17.2292 24.5607 24.3286 1.87007e-05 4.90208e-06 -0.401898 -0.422343 -43.5186 22.2916 -9.88446e-07 4.63217e-06 9.52577 5.66382 -16.5072 12.9945 -0.242716 -4.98039 89.0866 6.82624 -97.366 -5.34813 -1.25947e-06 -3.79883e-06 -45.4829 2.66231 -18.8819 -24.3289 0.000322201 -8.65921e-06 2.03877 0.660782 -72.0781 -22.2915 -0.000108084 -4.47941e-06 6.96854 5.60337 -11.5473 -2.19248 -6.46944 -1.22534e-07 -177.861 -19.6209 -44.5868 39.0811 -6.73843e-06 -1.23785e-05 0.449776 -0.0109598 89.472 40.9854 -6.48686e-06 -1.26872e-05 0.980185 4.82438 -57.321 11.7543 -2.30145e-07 3.05095e-06 0.157849 -0.266251 -21.2294 -2.19251 6.46944 -1.45247e-06 178.016 18.9335 155.647 -39.0811 -0.00228153 -0.0401928 0.16267 -0.0567908 65.5648 -40.9854 7.72618e-06 5.99936e-06 0.0428018 1.04606 -91.0046 -11.7543 -5.6619e-06 -5.58687e-06 -1.04423 -1.29347 -17.9125 
0 0 0 0 0 -0 0.552422 82.0369 -21.4621 89.6435 -5.76394 -4.06877 15.7357 5.1072e-06 -5.51765e-07 102.616 80.9564 -101.524 8.98455 -0.406207 -4.3199e-07 9.86482 3.94604 1.84114 16.3773 -1.3905e-06 -6.99897e-07 -1.71267 -3.22611 2.89174 6.45672 -1.25837e-06 -1.02172e-07 -8.717 -5.21771 -0.662238 12.9942 -0.242716 4.98039 -89.2489 -2.07344 -85.0891 5.34809 -7.22636e-06 -6.2814e-07 -68.7231 14.3604 29.7655 24.3286 1.87007e-05 4.90208e-06 0.0845358 0.0804383 -46.1866 22.2916 -9.88446e-07 4.63217e-06 8.17659 5.65699 -15.7194 12.9945 -0.242716 -4.98039 89.6101 3.34812 -98.3572 -5.34813 -1.25947e-06 -3.79883e-06 -44.7357 0.976977 -22.1561 -24.3289 0.000322201 -8.65921e-06 1.56791 0.438586 -74.3893 -22.2915 -0.000108084 -4.47941e-06 6.45803 5.59424 -11.0011 -2.19248 -6.46944 -1.22534e-07 178.399 -19.6443 -49.7384 39.0811 -6.73843e-06 -1.23785e-05 0.255978 -0.0480563 81.1646 40.9854 -6.48686e-06 -1.26872e-05 2.58625 -0.617056 -60.1674 11.7543 -2.30145e-07 3.05095e-06 0.127168 -0.210482 -20.2731 -2.19251 6.46944 -1.45247e-06 175.092 19.1284 163.28 -39.0811 -0.00228153 -0.0401928 0.143526 -0.0691481 57.7212 -40.9854 7.72618e-06 5.99936e-06 -1.3499 2.77788 -88.5987 -11.7543 -5.6619e-06 -5.58687e-06 -1.23902 -1.83071 -20.6675 
0 0 0 0 0 -0 0.762968 84.0672 -14.3019 90.2471 -5.33519 -6.28004 15.7357 5.1072e-06 -5.51765e-07 107.227 81.8733 -107.249 8.98455 -0.406207 -4.3199e-07 7.77972 4.79403 -0.369545 16.3773 -1.3905e-06 -6.99897e-07 -1.0872 -4.07511 3.35423 6.45672 -1.25837e-06 -1.02172e-07 -8.04513 -6.9995 -0.134417 12.9942 -0.242716 4.98039 -88.5308 -3.91438 -84.4097 5.34809 -7.22636e-06 -6.2814e-07 -67.6461 11.0454 33.2787 24.3286 1.87007e-05 4.90208e-06 0.649897 0.573351 -48.5669 22.2916 -9.88446e-07 4.63217e-06 8.49412 5.65072 -15.0909 12.9945 -0.242716 -4.98039 89.9073 0.818524 -98.5329 -5.34813 -1.25947e-06 -3.79883e-06 -44.3157 -0.138094 -23.5576 -24.3289 0.000322201 -8.65921e-06 2.3597 0.620465 -75.2827 -22.2915 -0.000108084 -4.47941e-06 5.49015 5.58542 -10.5054 -2.19248 -6.46944 -1.22534e-07 176.507 -17.9617 -52.2297 39.0811 -6.73843e-06 -1.23785e-05 0.141704 -0.0633602 68.9882 40.9854 -6.48686e-06 -1.26872e-05 1.67415 0.708748 -63.4278 11.7543 -2.30145e-07 3.05095e-06 0.133935 -0.222599 -20.4815 -2.19251 6.46944 -1.45247e-06 173.048 18.9498 170.355 -39.0811 -0.00228153 -0.0401928 0.11702 -0.0755455 48.2989 -40.9854 7.72618e-06 5.99936e-06 -3.12764 3.29944 -83.2681 -11.7543 -5.6619e-06 -5.58687e-06 0.0466272 -0.98697 -22.4586 
0 0 0 0 0 -0 0.956549 85.4734 -7.01151 90.892 -5.63669 -9.18643 15.7357 5.1072e-06 -5.51765e-07 113.906 82.7862 -115.18 8.98455 -0.406207 -4.3199e-07 5.51294 5.85824 -2.82911 16.3773 -1.3905e-06 -6.99897e-07 -0.847739 -4.71237 3.58326 6.45672 -1.25837e-06 -1.02172e-07 -7.03654 -8.66297 1.18758 12.9942 -0.242716 4.98039 -87.8889 -5.44463 -83.7704 5.34809 -7.22636e-06 -6.2814e-07 -66.3657 7.13344 35.3128 24.3286 1.87007e-05 4.90208e-06 1.57146 1.27376 -50.9724 22.2916 -9.88446e-07 4.63217e-06 9.2263 5.64649 -14.6915 12.9945 -0.242716 -4.98039 89.9747 0.214822 -98.2793 -5.34813 -1.25947e-06 -3.79883e-06 -43.18 -0.47955 -23.7139 -24.3289 0.000322201 -8.65921e-06 3.15405 0.811633 -75.5901 -22.2915 -0.000108084 -4.47941e-06 5.16377 5.5849 -10.479 -2.19248 -6.46944 -1.22534e-07 175.687 -16.1227 -53.5807 39.0811 -6.73843e-06 -1.23785e-05 0.077347 -0.0587212 55.2717 40.9854 -6.48686e-06 -1.26872e-05 0.222362 4.77897 -64.1292 11.7543 -2.30145e-07 3.05095e-06 0.137729 -0.22941 -20.5986 -2.19251 6.46944 -1.45247e-06 171.366 18.4222 174.514 -39.0811 -0.00228153 -0.0401928 0.101891 -0.0722738 41.6621 -40.9854 7.72618e-06 5.99936e-06 -3.35615 2.88864 -75.1284 -11.7543 -5.6619e-06 -5.58687e-06 0.939046 -1.28748 -28.3049 
0 0 0 0 0 -0 1.30128 86.1157 0.553683 91.0935 -7.10336 -11.4207 15.7357 5.1072e-06 -5.51765e-07 122.862 83.1445 -125.293 8.98455 -0.406207 -4.3199e-07 3.9434 7.51046 -5.12121 16.3773 -1.3905e-06 -6.99897e-07 -0.711301 -5.08689 3.45989 6.45672 -1.25837e-06 -1.02172e-07 -5.96721 -9.977 2.6061 12.9942 -0.242716 4.98039 -87.3795 -6.459 -82.8612 5.34809 -7.22636e-06 -6.2814e-07 -64.9316 3.19535 35.2669 24.3286 1.87007e-05 4.90208e-06 2.63213 2.00197 -52.7641 22.2916 -9.88446e-07 4.63217e-06 9.81228 5.64164 -14.273 12.9945 -0.242716 -4.98039 89.9555 0.359354 -97.9345 -5.34813 -1.25947e-06 -3.79883e-06 -42.9301 -0.42921 -22.9961 -24.3289 0.000322201 -8.65921e-06 4.79134 1.23446 -75.5877 -22.2915 -0.000108084 -4.47941e-06 5.72204 5.58452 -10.4578 -2.19248 -6.46944 -1.22534e-07 176.548 -14.7699 -53.1913 39.0811 -6.73843e-06 -1.23785e-05 0.0245377 -0.0306789 42.7429 40.9854 -6.48686e-06 -1.26872e-05 -1.90241 7.22981 -65.5981 11.7543 -2.30145e-07 3.05095e-06 0.145521 -0.243553 -20.8413 -2.19251 6.46944 -1.45247e-06 168.909 18.8094 177.222 -39.0811 -0.00228153 -0.0401928 0.138562 -0.121942 38.2513 -40.9854 7.72618e-06 5.99936e-06 -3.21868 4.77672 -64.6249 -11.7543 -5.6619e-06 -5.58687e-06 1.38629 -2.18142 -35.6477 
0 0 0 0 0 -0 1.69103 85.8193 8.49507 89.7977 -8.85071 -11.8671 15.7357 5.1072e-06 -5.51765e-07 128.948 82.6701 -131.95 8.98455 -0.406207 -4.3199e-07 3.93001 9.30338 -6.32772 16.3773 -1.3905e-06 -6.99897e-07 -0.660234 -5.18679 3.36883 6.45672 -1.25837e-06 -1.02172e-07 -5.56434 -10.5957 3.69971 12.9942 -0.242716 4.98039 -87.4171 -6.17992 -82.263 5.34809 -7.22636e-06 -6.2814e-07 -63.2324 -0.614688 33.8826 24.3286 1.87007e-05 4.90208e-06 3.61016 2.60147 -54.2657 22.2916 -9.88446e-07 4.63217e-06 11.5169 5.63716 -13.9035 12.9945 -0.242716 -4.98039 89.8726 1.00787 -97.7959 -5.34813 -1.25947e-06 -3.79883e-06 -44.3408 -0.650119 -21.6511 -24.3289 0.000322201 -8.65921e-06 5.51107 1.46724 -75.142 -22.2915 -0.000108084 -4.47941e-06 6.50795 5.5786 -10.1366 -2.19248 -6.46944 -1.22534e-07 178.203 -15.7478 -52.2379 39.0811 -6.73843e-06 -1.23785e-05 0.00666592 -0.00729201 36.3682 40.9854 -6.48686e-06 -1.26872e-05 -3.37741 3.78922 -66.5153 11.7543 -2.30145e-07 3.05095e-06 0.151931 -0.255322 -21.0427 -2.19251 6.46944 -1.45247e-06 167.352 16.2112 -179.82 -39.0811 -0.00228153 -0.0401928 0.183618 -0.178715 37.5068 -40.9854 7.72618e-06 5.99936e-06 -6.54848 5.45392 -53.977 -11.7543 -5.6619e-06 -5.58687e-06 1.45873 -2.35884 -37.0542 
